<svg width="16" height="16" viewBox="0 0 32 32" fill="none" xmlns="http://www.w3.org/2000/svg">
<path d="M32 16C32 24.8366 24.8366 32 16 32C7.16344 32 0 24.8366 0 16C0 7.16344 7.16344 0 16 0C24.8366 0 32 7.16344 32 16Z" fill="#272727"/>
<path d="M28 7L27.15 13.0404L25.7 13.0653L25.75 8.44769L21.725 8.19809L19.625 24.2226L22.825 24.4971L22.725 25.5455H13.8L13.875 24.4971L16.9 24.2226L18.975 8.19809L15 8.44769L13.6 13.0404H12.1L13.1 7H28Z" fill="white"/>
<path d="M8.925 7L9.025 8.09825L11.2 8.37281L13.25 24.2475L7.4 24.0978L5.5 19.4052L4 19.6548L5.225 25.5455H17.825L17.725 24.5221L15.95 24.2226L13.95 8.37281L15.625 8.09825L15.5 7H8.925Z" fill="white"/>
</svg>
