<svg width="30" height="30" viewBox="0 0 30 30" fill="none" xmlns="http://www.w3.org/2000/svg">
<path d="M2.73009 27.0009L0 0H30L27.2672 26.9968L14.9818 30L2.73009 27.0009Z" fill="#4A4A4A"/>
<path d="M15.0004 27.7045L24.9277 25.2777L27.2632 2.20752H15.0004V27.7045Z" fill="#707070"/>
<path d="M15.0004 11.99H19.9701L20.3134 8.59892H15.0004V5.28735H24.418L24.3278 6.17588L23.4046 15.3016H15.0004V11.99Z" fill="white"/>
<path d="M15.0224 20.5904L15.0058 20.5947L10.8233 19.5989L10.5558 16.9578H6.78625L7.31223 22.1575L15.0053 24.0401L15.0224 24.0358V20.5904Z" fill="#EBEBEB"/>
<path d="M19.6507 15.1616L19.1983 19.5964L15.0095 20.5934V24.0388L22.7088 22.1573L22.7653 21.5978L23.4186 15.1616H19.6507Z" fill="white"/>
<path d="M15.0131 5.28735V8.59892H5.94139L5.86618 7.85477L5.6951 6.17588L5.60522 5.28735H15.0131ZM15.0003 11.9905V15.302H10.8704L10.7952 14.5579L10.6239 12.879L10.5343 11.9905H15.0003Z" fill="#EBEBEB"/>
</svg>
