<svg width="15" height="30" viewBox="0 0 15 30" fill="none" xmlns="http://www.w3.org/2000/svg">
<path d="M3.75 30C5.82558 30 7.5 27.7674 7.5 25V20H3.75C1.67442 20 0 22.2326 0 25C0 27.7674 1.67442 30 3.75 30ZM0 15C0 12.2326 1.67442 10 3.75 10H7.5V20H3.75C1.67442 20 0 17.7674 0 15ZM0 5C0 2.23256 1.67442 0 3.75 0H7.5V10H3.75C1.67442 10 0 7.76744 0 5ZM7.5 0H11.25C13.3256 0 15 2.23256 15 5C15 7.76744 13.3256 10 11.25 10H7.5V0ZM15 15C15 17.7674 13.3256 20 11.25 20C9.17442 20 7.5 17.7674 7.5 15C7.5 12.2326 9.17442 10 11.25 10C13.3256 10 15 12.2326 15 15Z" fill="#4A4A4A"/>
</svg>
