<svg width="30" height="30" viewBox="0 0 30 30" fill="none" xmlns="http://www.w3.org/2000/svg">
<path d="M2.73023 27.0012L0 0H30L27.2668 26.9971L14.9817 30L2.73023 27.0012Z" fill="#4A4A4A"/>
<path d="M15 27.705L24.927 25.2782L27.2627 2.20801H15V27.705Z" fill="#707070"/>
<path d="M15.0001 12.2222H10.0303L9.687 8.83094H15.0001V5.51953H5.58252L5.67257 6.4079L6.59547 15.5339H15.0001V12.2222ZM15.0001 20.8227L14.9834 20.8268L10.8009 19.8306L10.5338 17.1898H6.7633L7.28942 22.3894L14.9829 24.2725L15.0001 24.2684V20.8227Z" fill="#EBEBEB"/>
<path d="M14.9868 12.2222V15.5339H19.6114L19.1756 19.8287L14.9868 20.8256V24.271L22.6863 22.3894L22.7428 21.8299L23.6253 13.1116L23.7167 12.2222H22.7049H14.9868ZM14.9868 5.51953V8.83094H24.0586L24.134 8.08695L24.3053 6.4079L24.3951 5.51953H14.9868Z" fill="white"/>
</svg>
