<svg width="60" height="48" viewBox="0 0 60 48" fill="none" xmlns="http://www.w3.org/2000/svg">
<path d="M60 0L57.875 15.3896L54.25 15.4532L54.375 3.68842L44.3125 3.05249L39.0625 43.8795L47.0625 44.5791L46.8125 47.25H24.5L24.6875 44.5791L32.25 43.8795L37.4375 3.05249L27.5 3.68842L24 15.3896H20.25L22.75 0H60Z" fill="white"/>
<path d="M12.3125 0L12.5625 2.79811L18 3.49764L23.125 43.9431L8.5 43.5616L3.75 31.606L0 32.2419L3.0625 47.25H34.5625L34.3125 44.6427L29.875 43.8795L24.875 3.49764L29.0625 2.79811L28.75 0H12.3125Z" fill="white"/>
</svg>
