<svg width="520" height="462" viewBox="0 0 520 462" fill="none" xmlns="http://www.w3.org/2000/svg">
<path d="M259.83 331.262C190.744 331.262 125.762 320.978 76.854 302.304C27.2939 283.381 0 257.962 0 230.728C0 203.495 27.2939 178.077 76.854 159.154C125.762 140.48 190.744 130.196 259.83 130.196C328.916 130.196 393.897 140.48 442.806 159.154C492.366 178.077 519.66 203.496 519.66 230.728C519.66 257.961 492.366 283.381 442.806 302.304C393.897 320.978 328.916 331.262 259.83 331.262V331.262ZM259.83 134.484C191.254 134.484 126.816 144.668 78.3838 163.16C30.6026 181.404 4.28885 205.4 4.28885 230.728C4.28885 256.056 30.6026 280.053 78.3838 298.297C126.816 316.789 191.254 326.973 259.83 326.973C328.406 326.973 392.845 316.789 441.276 298.297C489.057 280.053 515.371 256.057 515.371 230.728C515.371 205.399 489.057 181.404 441.276 163.16C392.844 144.668 328.405 134.484 259.83 134.484V134.484Z" fill="#62D4F3"/>
<path d="M367.183 461.458C345.713 461.458 318.949 449.049 289.332 424.978C248.705 391.96 207.308 340.825 172.765 280.996C138.223 221.166 114.638 159.747 106.356 108.054C97.9638 55.6724 106.33 19.326 129.915 5.70967C153.5 -7.90611 189.161 3.02128 230.327 36.4793C270.954 69.4987 312.352 120.633 346.894 180.462C381.437 240.291 405.022 301.71 413.304 353.404C421.696 405.785 413.329 442.132 389.745 455.749C383.128 459.569 375.556 461.458 367.183 461.458V461.458ZM152.592 4.2558C144.937 4.2558 138.05 5.96464 132.059 9.42368C110.124 22.0882 102.5 56.8745 110.591 107.376C118.792 158.565 142.192 219.463 176.479 278.851C210.767 338.239 251.806 388.952 292.037 421.65C331.727 453.908 365.666 464.701 387.6 452.034C409.536 439.37 417.16 404.583 409.069 354.082C400.867 302.892 377.468 241.995 343.18 182.606C308.892 123.219 267.853 72.5054 227.622 39.808C198.774 16.3606 172.963 4.2558 152.592 4.2558Z" fill="#62D4F3"/>
<path d="M152.477 461.458C144.101 461.458 136.534 459.57 129.915 455.749C106.331 442.132 97.9638 405.785 106.356 353.404C114.638 301.71 138.223 240.291 172.765 180.462C207.308 120.633 248.705 69.4986 289.332 36.4793C330.499 3.02076 366.161 -7.90766 389.745 5.70968C413.329 19.326 421.696 55.6724 413.304 108.054C405.022 159.747 381.437 221.166 346.894 280.996C312.352 340.825 270.954 391.96 230.327 424.978C200.713 449.048 173.946 461.458 152.477 461.458V461.458ZM367.068 4.25581C346.696 4.25581 320.889 16.3591 292.037 39.808C251.806 72.5054 210.767 123.219 176.479 182.606C142.192 241.995 118.792 302.892 110.591 354.082C102.5 404.583 110.124 439.37 132.059 452.034C138.049 455.493 144.939 457.201 152.592 457.202C172.963 457.205 198.771 445.099 227.622 421.65C267.853 388.952 308.892 338.239 343.18 278.851C377.468 219.463 400.867 158.565 409.069 107.376C417.16 56.8745 409.536 22.0882 387.6 9.42369C381.61 5.96569 374.721 4.25581 367.068 4.25581V4.25581Z" fill="#62D4F3"/>
<path d="M259.83 278.752C286.352 278.752 307.853 257.251 307.853 230.729C307.853 204.206 286.352 182.706 259.83 182.706C233.307 182.706 211.807 204.206 211.807 230.729C211.807 257.251 233.307 278.752 259.83 278.752Z" fill="#62D4F3"/>
</svg>
