<svg width="30" height="30" viewBox="0 0 30 30" fill="none" xmlns="http://www.w3.org/2000/svg">
<path d="M15.0001 18.059C16.5087 18.059 17.7317 16.6894 17.7317 15C17.7317 13.3105 16.5087 11.9409 15.0001 11.9409C13.4914 11.9409 12.2684 13.3105 12.2684 15C12.2684 16.6894 13.4914 18.059 15.0001 18.059Z" fill="#4A4A4A"/>
<path d="M25.3754 9.95528C24.8482 9.74061 24.2971 9.52594 23.722 9.3381C23.8658 8.6941 23.9856 8.05009 24.0815 7.43292C24.5847 3.89088 24.0335 1.39535 22.5 0.429338C22.0447 0.134168 21.5415 0 20.9665 0C19.2891 0 17.1565 1.39535 15 3.72987C12.8435 1.39535 10.7109 0 9.03355 0C8.45847 0 7.95527 0.134168 7.5 0.429338C5.96645 1.42218 5.41534 3.91771 5.91853 7.43292C6.01438 8.05009 6.13419 8.6941 6.27796 9.3381C5.70288 9.52594 5.15176 9.71377 4.6246 9.95528C1.62939 11.2433 0 13.0143 0 15C0 16.9857 1.65336 18.7567 4.6246 20.0447C5.15176 20.2594 5.70288 20.4741 6.27796 20.6619C6.13419 21.3059 6.01438 21.9499 5.91853 22.5671C5.41534 26.1091 5.96645 28.6047 7.5 29.5707C7.95527 29.8658 8.45847 30 9.03355 30C10.7348 30 12.8674 28.6046 15 26.2701C17.1565 28.6046 19.2891 30 20.9665 30C21.5415 30 22.0447 29.8658 22.5 29.5707C24.0335 28.5778 24.5847 26.0823 24.0815 22.5671C23.9856 21.9499 23.8658 21.3059 23.722 20.6619C24.2971 20.4741 24.8482 20.2862 25.3754 20.0447C28.3706 18.7567 30 16.9857 30 15C30 13.0143 28.3706 11.2433 25.3754 9.95528ZM21.8291 1.77102C22.8115 2.41503 23.147 4.40072 22.7396 7.21825C22.6677 7.78175 22.5479 8.37209 22.4042 8.98927C21.1581 8.66726 19.8403 8.45259 18.4505 8.31842C17.6358 7.03041 16.7971 5.87656 15.9585 4.83005C17.7316 2.8712 19.5288 1.52952 20.9904 1.52952C21.3019 1.52952 21.5895 1.61002 21.8291 1.77102ZM19.1454 17.6834C18.7141 18.542 18.2109 19.4007 17.6837 20.2594C16.7971 20.3399 15.9105 20.3667 15 20.3667C14.0655 20.3667 13.1789 20.3399 12.3163 20.2594C11.7891 19.4007 11.3099 18.542 10.8786 17.6834C10.4233 16.7979 9.99201 15.8855 9.60863 15C9.99201 14.1145 10.4233 13.2021 10.8786 12.3166C11.3099 11.458 11.8131 10.5993 12.3403 9.74061C13.2268 9.66011 14.1134 9.63327 15.024 9.63327C15.9585 9.63327 16.845 9.66011 17.7077 9.74061C18.2348 10.5993 18.7141 11.458 19.1454 12.3166C19.6006 13.2021 20.0319 14.1145 20.4153 15C20.008 15.8855 19.6006 16.771 19.1454 17.6834ZM21.1342 16.7979C21.4936 17.737 21.7812 18.6494 22.0447 19.5617C21.23 19.7764 20.3674 19.9374 19.4569 20.0716C19.7444 19.5617 20.0559 19.025 20.3195 18.4615C20.607 17.898 20.8706 17.3345 21.1342 16.7979ZM15 24.0698C14.4249 23.3721 13.8738 22.6208 13.3466 21.8426C13.8978 21.8694 14.4489 21.8962 15 21.8962C15.5511 21.8962 16.1022 21.8694 16.6534 21.8426C16.1262 22.6208 15.5751 23.3721 15 24.0698ZM10.5431 20.0447C9.63259 19.9106 8.76997 19.7496 7.95527 19.5349C8.21885 18.6494 8.50639 17.7102 8.86582 16.771C9.12939 17.3077 9.39297 17.8712 9.68051 18.4079C9.96805 18.9982 10.2556 19.508 10.5431 20.0447ZM8.86582 13.2021C8.50639 12.263 8.21885 11.3506 7.95527 10.4383C8.76997 10.2236 9.63259 10.0626 10.5431 9.92844C10.2556 10.4383 9.94409 10.975 9.68051 11.5385C9.39297 12.102 9.12939 12.6655 8.86582 13.2021ZM15 5.93023C15.5751 6.62791 16.1262 7.37925 16.6534 8.15742C16.1022 8.13059 15.5511 8.10376 15 8.10376C14.4489 8.10376 13.8978 8.13059 13.3466 8.15742C13.8738 7.37925 14.4249 6.62791 15 5.93023ZM20.3195 11.5653L19.4569 9.95528C20.3674 10.0894 21.23 10.2504 22.0447 10.4651C21.7812 11.3506 21.4936 12.2898 21.1342 13.229C20.8706 12.6655 20.607 12.102 20.3195 11.5653ZM7.26038 7.21825C6.85304 4.40072 7.1885 2.41503 8.17093 1.77102C8.41054 1.61002 8.69808 1.52952 9.00958 1.52952C10.4473 1.52952 12.2444 2.84436 14.0415 4.83005C13.2029 5.84973 12.3642 7.03041 11.5495 8.31842C10.1597 8.45259 8.84185 8.6941 7.59585 8.98927C7.45208 8.37209 7.35623 7.78175 7.26038 7.21825ZM1.34185 15C1.34185 13.7388 2.70767 12.3971 5.10383 11.4043C5.58307 11.1896 6.11022 11.0018 6.63738 10.8408C7.02077 12.1825 7.5 13.6047 8.07508 15.0268C7.5 16.449 6.99681 17.8444 6.63738 19.186C3.33067 18.1127 1.34185 16.5027 1.34185 15ZM8.17093 28.229C7.1885 27.585 6.85304 25.5993 7.26038 22.7818C7.33227 22.2182 7.45208 21.6279 7.59585 21.0107C8.84185 21.3327 10.1597 21.5474 11.5495 21.6816C12.3642 22.9696 13.2029 24.1234 14.0415 25.1699C12.2684 27.1288 10.4712 28.4705 9.00958 28.4705C8.69808 28.4705 8.41054 28.39 8.17093 28.229ZM22.7396 22.7818C23.147 25.5993 22.8115 27.585 21.8291 28.229C21.5895 28.39 21.3019 28.4705 20.9904 28.4705C19.5527 28.4705 17.7556 27.1556 15.9585 25.1699C16.7971 24.1503 17.6358 22.9696 18.4505 21.6816C19.8403 21.5474 21.1581 21.3059 22.4042 21.0107C22.5479 21.6279 22.6438 22.2182 22.7396 22.7818ZM24.8962 18.5957C24.4169 18.8104 23.8898 18.9982 23.3626 19.1592C22.9792 17.8175 22.5 16.3953 21.9249 14.9732C22.5 13.551 23.0032 12.1556 23.3626 10.814C26.6693 11.8873 28.6581 13.4973 28.6581 15C28.6581 16.2612 27.2684 17.6029 24.8962 18.5957Z" fill="#4A4A4A"/>
</svg>
