<svg width="30" height="30" viewBox="0 0 30 30" fill="none" xmlns="http://www.w3.org/2000/svg">
<g clip-path="url(#clip0_203_2)">
<path d="M20.7867 20.6507C18.6773 24.9632 14.9836 27.8647 10.0968 28.8187C9.34757 29.0022 8.5784 29.092 7.807 29.0858C4.9945 29.0858 2.41637 27.914 1.16481 25.9944C-0.515659 23.4374 -1.08753 18.0163 4.45309 14.0062C4.56559 14.6179 4.79528 15.4569 4.94762 15.9538C3.85996 16.7619 2.96968 17.806 2.34372 19.0077C1.31247 21.0327 1.42731 23.0554 2.6484 24.9257C3.49215 26.1866 4.82809 26.953 6.54606 27.1874C8.69185 27.459 10.8687 27.049 12.7687 26.0155C15.7476 24.4499 17.7328 22.5796 19.0312 20.0226C18.6641 19.6431 18.4468 19.1436 18.4195 18.6163C18.3999 18.0505 18.6055 17.5 18.9913 17.0857C19.3771 16.6713 19.9115 16.4269 20.4773 16.4062H20.557C21.1073 16.4034 21.6376 16.6123 22.0382 16.9896C22.4388 17.367 22.679 17.8838 22.7091 18.4333C22.7392 18.9828 22.5569 19.5228 22.1999 19.9417C21.843 20.3605 21.3387 20.6261 20.7914 20.6835L20.7867 20.6507ZM27.5062 15.9163C30.3679 19.1601 30.4453 22.978 29.339 25.1929C28.3078 27.2155 25.589 29.2405 21.9328 29.2405C20.226 29.2057 18.5469 28.8019 17.0109 28.0569C17.5476 27.6749 18.3093 27.0632 18.7289 26.6812C19.9134 27.1943 21.1881 27.4668 22.4789 27.4827C24.8461 27.4827 26.639 26.3765 27.7078 24.3538C28.3945 23.0179 28.4343 21.4522 27.7851 19.8491C26.9885 17.8321 25.5709 16.1206 23.7375 14.9624C21.332 13.3409 18.4962 12.4764 15.5953 12.4804H14.9086C14.7484 12.8503 14.4879 13.168 14.1565 13.3974C13.8252 13.6269 13.4362 13.759 13.0336 13.7788H12.9609C12.4041 13.772 11.8718 13.5483 11.4772 13.1554C11.0827 12.7624 10.8568 12.2311 10.8476 11.6743C10.8385 11.1175 11.0468 10.5791 11.4282 10.1733C11.8097 9.76763 12.3343 9.52661 12.8906 9.50146H12.9679C13.3556 9.50176 13.7357 9.60887 14.0665 9.81106C14.3972 10.0132 14.6659 10.3027 14.8429 10.6476H15.4547C20.3297 10.6476 24.6093 12.5179 27.5062 15.9163ZM8.11168 21.3069C8.07155 20.9177 8.16584 20.5265 8.37887 20.1983C6.24137 16.4952 5.09762 11.8007 6.85309 6.91396C8.11168 3.24131 11.2804 0.759277 14.7164 0.759277C18.382 0.759277 22.2 3.96787 22.657 10.1507C22.0851 9.96084 21.2507 9.68193 20.7492 9.57881C20.625 7.55615 18.9164 2.51709 14.8687 2.59209C13.4179 2.63193 11.2804 3.31865 10.1812 4.72959C8.82152 6.41386 8.03053 8.48568 7.92184 10.6476C7.66419 13.6119 8.35968 16.581 9.907 19.1226C9.99242 19.0913 10.0835 19.0786 10.1742 19.0851H10.2492C10.8161 19.0748 11.3638 19.2902 11.772 19.6838C12.1801 20.0774 12.4151 20.617 12.4254 21.1839C12.4356 21.7508 12.2202 22.2985 11.8266 22.7067C11.433 23.1148 10.8934 23.3498 10.3265 23.3601H10.2492C9.69613 23.3581 9.16517 23.1428 8.76696 22.759C8.36875 22.3752 8.13402 21.8525 8.11168 21.2999V21.3069Z" fill="#4A4A4A"/>
</g>
<defs>
<clipPath id="clip0_203_2">
<rect width="30" height="30" fill="white"/>
</clipPath>
</defs>
</svg>
