<svg width="35" height="35" viewBox="0 0 35 35" fill="none" xmlns="http://www.w3.org/2000/svg">
<g clip-path="url(#clip0_114_2)">
<path d="M17.5011 7.00049C12.8343 7.00049 9.91868 9.33291 8.7511 13.9997C10.5006 11.667 12.5429 10.7922 14.8756 11.3755C16.2075 11.7074 17.1593 12.6732 18.2134 13.7435C19.929 15.4844 21.9147 17.4999 26.2511 17.4999C30.9176 17.4999 33.8335 15.1672 35.0011 10.4994C33.2514 12.8335 31.2093 13.7082 28.8764 13.1249C27.5447 12.7927 26.594 11.8272 25.5385 10.757C23.8241 9.016 21.8389 7.00049 17.5011 7.00049V7.00049ZM8.7511 17.4999C4.08461 17.4999 1.16868 19.8326 0.00109863 24.5005C1.75055 22.1664 3.79258 21.2917 6.12555 21.8749C7.45747 22.2072 8.4093 23.1727 9.4634 24.2429C11.179 25.9839 13.1647 27.9994 17.5011 27.9994C22.1676 27.9994 25.0835 25.667 26.2511 21.0002C24.5014 23.3329 22.4593 24.2076 20.1264 23.6244C18.7947 23.2924 17.844 22.3267 16.7885 21.2564C15.0741 19.5155 13.0889 17.4999 8.7511 17.4999Z" fill="#4A4A4A"/>
</g>
<defs>
<clipPath id="clip0_114_2">
<rect width="35" height="35" fill="white"/>
</clipPath>
</defs>
</svg>
